# xmcd
#
# Track frame offsets:
#	150
#	11596
#	33707
#
# Disc length: 800 seconds
#
# Revision: 1
# Processed by: cddbd v1.5PL3 Copyright (c) Steve Scherf et al.
# Submitted via: CDex 1.50Beta5
#
DISCID=1d031e03
DTITLE=A Corpse Named Abel - Demo 2001
DYEAR=2001
DGENRE=Metal
TTITLE0=Monolith
TTITLE1=Lost July
TTITLE2=Ravaged By Years
EXTD=
EXTT0=
EXTT1=
EXTT2=
PLAYORDER=
